<?xml version="1.0" standalone="no"?>
<svg xmlns:xlink="http://www.w3.org/1999/xlink" id="wave" style="transform:rotate(180deg); transition: 0.3s" viewBox="0 0 1440 180" version="1.1" xmlns="http://www.w3.org/2000/svg"><defs><linearGradient id="sw-gradient-0" x1="0" x2="0" y1="1" y2="0"><stop stop-color="rgba(32.817, 155.191, 72.687, 1)" offset="0%"/><stop stop-color="rgba(38.075, 148.361, 70.27, 1)" offset="100%"/></linearGradient></defs><path style="transform:translate(0, 0px); opacity:1" fill="url(#sw-gradient-0)" d="M0,72L60,69C120,66,240,60,360,66C480,72,600,90,720,81C840,72,960,36,1080,27C1200,18,1320,36,1440,39C1560,42,1680,30,1800,30C1920,30,2040,42,2160,39C2280,36,2400,18,2520,33C2640,48,2760,96,2880,102C3000,108,3120,72,3240,66C3360,60,3480,84,3600,78C3720,72,3840,36,3960,24C4080,12,4200,24,4320,51C4440,78,4560,120,4680,141C4800,162,4920,162,5040,162C5160,162,5280,162,5400,147C5520,132,5640,102,5760,99C5880,96,6000,120,6120,114C6240,108,6360,72,6480,57C6600,42,6720,48,6840,66C6960,84,7080,114,7200,111C7320,108,7440,72,7560,66C7680,60,7800,84,7920,99C8040,114,8160,120,8280,126C8400,132,8520,138,8580,141L8640,144L8640,180L8580,180C8520,180,8400,180,8280,180C8160,180,8040,180,7920,180C7800,180,7680,180,7560,180C7440,180,7320,180,7200,180C7080,180,6960,180,6840,180C6720,180,6600,180,6480,180C6360,180,6240,180,6120,180C6000,180,5880,180,5760,180C5640,180,5520,180,5400,180C5280,180,5160,180,5040,180C4920,180,4800,180,4680,180C4560,180,4440,180,4320,180C4200,180,4080,180,3960,180C3840,180,3720,180,3600,180C3480,180,3360,180,3240,180C3120,180,3000,180,2880,180C2760,180,2640,180,2520,180C2400,180,2280,180,2160,180C2040,180,1920,180,1800,180C1680,180,1560,180,1440,180C1320,180,1200,180,1080,180C960,180,840,180,720,180C600,180,480,180,360,180C240,180,120,180,60,180L0,180Z"/></svg>